<?xml version="1.0" encoding="utf-8"?>
<!-- Generator: Adobe Illustrator 26.5.0, SVG Export Plug-In . SVG Version: 6.00 Build 0)  -->
<svg version="1.1" id="레이어_1" xmlns="http://www.w3.org/2000/svg" xmlns:xlink="http://www.w3.org/1999/xlink" x="0px"
	 y="0px" viewBox="0 0 56.69 56.69" enable-background="new 0 0 56.69 56.69" xml:space="preserve">
<g>
	<polygon points="45.71,20.47 43.82,23.16 48.17,26.22 20.55,26.22 20.55,29.51 48.75,29.51 43.73,33.6 45.81,36.15 56.1,27.77 	"/>
	<path d="M33.31,47.25c0,2.57-2.09,4.66-4.66,4.66H8.55c-2.57,0-4.66-2.09-4.66-4.66V9.44c0-2.57,2.09-4.66,4.66-4.66h20.09
		c2.57,0,4.66,2.09,4.66,4.66v9.92h3.29V9.44c0-4.39-3.57-7.96-7.96-7.96H8.55c-4.39,0-7.96,3.57-7.96,7.96v37.81
		c0,4.39,3.57,7.96,7.96,7.96h20.09c4.39,0,7.96-3.57,7.96-7.96v-9.92h-3.29V47.25z"/>
</g>
</svg>
